<mxfile host="65bd71144e">
    <diagram id="SzhB8Du72048qasYa-aC" name="容器创建">
        <mxGraphModel dx="1205" dy="2786" grid="1" gridSize="10" guides="1" tooltips="1" connect="1" arrows="0" fold="1" page="0" pageScale="1" pageWidth="827" pageHeight="583" background="none" math="0" shadow="1">
            <root>
                <mxCell id="27uLdjD5mK71LCT6hX2T-0"/>
                <mxCell id="27uLdjD5mK71LCT6hX2T-1" parent="27uLdjD5mK71LCT6hX2T-0"/>
                <mxCell id="01CPi6KSBd6ZrqsDmOY4-1" value="" style="verticalLabelPosition=bottom;verticalAlign=top;html=1;shadow=0;dashed=0;strokeWidth=1;shape=mxgraph.android.tab2;strokeColor=#c0c0c0;direction=north;" parent="27uLdjD5mK71LCT6hX2T-1" vertex="1">
                    <mxGeometry x="20" y="-1680" width="510" height="330" as="geometry"/>
                </mxCell>
                <mxCell id="gLwVRf4GaK1Xq6DHgBcj-0" value="docker&amp;nbsp; run&amp;nbsp; -itd --name=test&amp;nbsp; -p 80:80&amp;nbsp; -v xxxx:xxxx&amp;nbsp; &amp;lt;镜像&amp;gt;:tag" style="text;html=1;align=center;verticalAlign=middle;resizable=0;points=[];autosize=1;strokeColor=none;fillColor=none;" parent="27uLdjD5mK71LCT6hX2T-1" vertex="1">
                    <mxGeometry x="20" y="-1740" width="350" height="20" as="geometry"/>
                </mxCell>
                <mxCell id="01CPi6KSBd6ZrqsDmOY4-2" value="&lt;p style=&quot;line-height: 1.6&quot;&gt;&lt;/p&gt;&lt;div style=&quot;text-align: center ; font-size: 14px&quot;&gt;&lt;font style=&quot;font-size: 14px&quot;&gt;需求列表：&lt;/font&gt;&lt;/div&gt;&lt;div style=&quot;text-align: center ; font-size: 14px&quot;&gt;&lt;font style=&quot;font-size: 14px&quot;&gt;&lt;br&gt;&lt;/font&gt;&lt;/div&gt;&lt;font style=&quot;font-size: 14px&quot;&gt;1、输入容器名称，校验容器名称是否符合规范&lt;br&gt;2、选择宿主机端口和容器端口映射，（非必须）&lt;br&gt;3、挂载数据卷到容器指定目录（非必须）&lt;br&gt;4、等待容器创建完成，跳转容器列表&lt;br&gt;&lt;br&gt;&lt;/font&gt;&lt;p&gt;&lt;/p&gt;" style="text;html=1;align=left;verticalAlign=middle;resizable=0;points=[];autosize=1;strokeColor=none;fillColor=none;" parent="27uLdjD5mK71LCT6hX2T-1" vertex="1">
                    <mxGeometry x="540" y="-1730" width="320" height="130" as="geometry"/>
                </mxCell>
                <mxCell id="01CPi6KSBd6ZrqsDmOY4-3" value="步骤条" style="text;html=1;align=center;verticalAlign=middle;resizable=0;points=[];autosize=1;strokeColor=none;fillColor=none;fontSize=14;" parent="27uLdjD5mK71LCT6hX2T-1" vertex="1">
                    <mxGeometry x="630" y="-1550" width="60" height="20" as="geometry"/>
                </mxCell>
                <mxCell id="01CPi6KSBd6ZrqsDmOY4-4" value="初始化页面显示" style="text;html=1;align=center;verticalAlign=middle;resizable=0;points=[];autosize=1;strokeColor=none;fillColor=none;fontSize=14;" parent="27uLdjD5mK71LCT6hX2T-1" vertex="1">
                    <mxGeometry x="550" y="-1580" width="110" height="20" as="geometry"/>
                </mxCell>
                <mxCell id="p_zdCeveaHQMmSlJTnT9-5" value="" style="edgeStyle=none;html=1;" edge="1" parent="27uLdjD5mK71LCT6hX2T-1" source="p_zdCeveaHQMmSlJTnT9-0" target="p_zdCeveaHQMmSlJTnT9-4">
                    <mxGeometry relative="1" as="geometry"/>
                </mxCell>
                <mxCell id="p_zdCeveaHQMmSlJTnT9-0" value="" style="verticalLabelPosition=top;html=1;shadow=0;dashed=0;verticalAlign=bottom;strokeWidth=1;shape=mxgraph.ios.iPin;fillColor2=#ffff00;fillColor3=#888800;strokeColor=#999900;" vertex="1" parent="27uLdjD5mK71LCT6hX2T-1">
                    <mxGeometry x="80" y="-1625" width="10" height="25" as="geometry"/>
                </mxCell>
                <mxCell id="p_zdCeveaHQMmSlJTnT9-8" value="" style="edgeStyle=none;html=1;" edge="1" parent="27uLdjD5mK71LCT6hX2T-1" source="p_zdCeveaHQMmSlJTnT9-1" target="p_zdCeveaHQMmSlJTnT9-7">
                    <mxGeometry relative="1" as="geometry"/>
                </mxCell>
                <mxCell id="p_zdCeveaHQMmSlJTnT9-1" value="" style="verticalLabelPosition=top;html=1;shadow=0;dashed=0;verticalAlign=bottom;strokeWidth=1;shape=mxgraph.ios.iPin;fillColor2=#ccccff;fillColor3=#0000ff;strokeColor=#000066;" vertex="1" parent="27uLdjD5mK71LCT6hX2T-1">
                    <mxGeometry x="174" y="-1625" width="10" height="25" as="geometry"/>
                </mxCell>
                <mxCell id="p_zdCeveaHQMmSlJTnT9-10" value="" style="edgeStyle=none;html=1;" edge="1" parent="27uLdjD5mK71LCT6hX2T-1" source="p_zdCeveaHQMmSlJTnT9-2" target="p_zdCeveaHQMmSlJTnT9-9">
                    <mxGeometry relative="1" as="geometry"/>
                </mxCell>
                <mxCell id="p_zdCeveaHQMmSlJTnT9-2" value="" style="verticalLabelPosition=top;html=1;shadow=0;dashed=0;verticalAlign=bottom;strokeWidth=1;shape=mxgraph.ios.iPin;fillColor2=#dd0000;fillColor3=#440000;strokeColor=#660000;" vertex="1" parent="27uLdjD5mK71LCT6hX2T-1">
                    <mxGeometry x="280" y="-1625" width="10" height="25" as="geometry"/>
                </mxCell>
                <mxCell id="p_zdCeveaHQMmSlJTnT9-12" value="" style="edgeStyle=none;html=1;" edge="1" parent="27uLdjD5mK71LCT6hX2T-1" source="p_zdCeveaHQMmSlJTnT9-3" target="p_zdCeveaHQMmSlJTnT9-11">
                    <mxGeometry relative="1" as="geometry"/>
                </mxCell>
                <mxCell id="p_zdCeveaHQMmSlJTnT9-3" value="" style="verticalLabelPosition=top;html=1;shadow=0;dashed=0;verticalAlign=bottom;strokeWidth=1;shape=mxgraph.ios.iPin;fillColor2=#00dd00;fillColor3=#004400;strokeColor=#006600;" vertex="1" parent="27uLdjD5mK71LCT6hX2T-1">
                    <mxGeometry x="400" y="-1625" width="10" height="25" as="geometry"/>
                </mxCell>
                <mxCell id="p_zdCeveaHQMmSlJTnT9-4" value="第一步：" style="whiteSpace=wrap;html=1;verticalAlign=bottom;strokeColor=#999900;shadow=0;dashed=0;strokeWidth=1;" vertex="1" parent="27uLdjD5mK71LCT6hX2T-1">
                    <mxGeometry x="115" y="-1621.25" width="55" height="17.5" as="geometry"/>
                </mxCell>
                <mxCell id="p_zdCeveaHQMmSlJTnT9-7" value="第二步：" style="whiteSpace=wrap;html=1;verticalAlign=bottom;strokeColor=#000066;shadow=0;dashed=0;strokeWidth=1;" vertex="1" parent="27uLdjD5mK71LCT6hX2T-1">
                    <mxGeometry x="209.5" y="-1621.25" width="60.5" height="17.5" as="geometry"/>
                </mxCell>
                <mxCell id="p_zdCeveaHQMmSlJTnT9-9" value="第三步：" style="whiteSpace=wrap;html=1;verticalAlign=bottom;strokeColor=#660000;shadow=0;dashed=0;strokeWidth=1;" vertex="1" parent="27uLdjD5mK71LCT6hX2T-1">
                    <mxGeometry x="310" y="-1621.25" width="75" height="17.5" as="geometry"/>
                </mxCell>
                <mxCell id="p_zdCeveaHQMmSlJTnT9-11" value="完成" style="whiteSpace=wrap;html=1;verticalAlign=bottom;strokeColor=#006600;shadow=0;dashed=0;strokeWidth=1;" vertex="1" parent="27uLdjD5mK71LCT6hX2T-1">
                    <mxGeometry x="430" y="-1621.25" width="45" height="17.5" as="geometry"/>
                </mxCell>
                <mxCell id="p_zdCeveaHQMmSlJTnT9-13" value="&lt;font style=&quot;font-size: 22px&quot;&gt;内容显示区域&lt;/font&gt;" style="rounded=1;whiteSpace=wrap;html=1;" vertex="1" parent="27uLdjD5mK71LCT6hX2T-1">
                    <mxGeometry x="90" y="-1587" width="360.5" height="130" as="geometry"/>
                </mxCell>
                <mxCell id="p_zdCeveaHQMmSlJTnT9-14" value="完成" style="html=1;shadow=0;dashed=0;shape=mxgraph.bootstrap.rrect;rSize=5;strokeColor=none;strokeWidth=1;fillColor=#33A64C;fontColor=#FFFFFF;whiteSpace=wrap;align=center;verticalAlign=middle;spacingLeft=0;fontStyle=0;fontSize=16;spacing=5;" vertex="1" parent="27uLdjD5mK71LCT6hX2T-1">
                    <mxGeometry x="630" y="-1370" width="80" height="30" as="geometry"/>
                </mxCell>
                <mxCell id="p_zdCeveaHQMmSlJTnT9-15" value="下一步" style="html=1;shadow=0;dashed=0;shape=mxgraph.bootstrap.rrect;rSize=5;strokeColor=none;strokeWidth=1;fillColor=#FFBC26;fontColor=#FFFFFF;whiteSpace=wrap;align=center;verticalAlign=middle;spacingLeft=0;fontStyle=0;fontSize=16;spacing=5;" vertex="1" parent="27uLdjD5mK71LCT6hX2T-1">
                    <mxGeometry x="365" y="-1440" width="80" height="30" as="geometry"/>
                </mxCell>
                <mxCell id="p_zdCeveaHQMmSlJTnT9-16" value="&lt;font style=&quot;font-size: 17px&quot;&gt;当步骤到完成的时候，&lt;br&gt;下一步按钮变成完成&lt;/font&gt;" style="text;html=1;align=center;verticalAlign=middle;resizable=0;points=[];autosize=1;strokeColor=none;fillColor=none;fontSize=22;" vertex="1" parent="27uLdjD5mK71LCT6hX2T-1">
                    <mxGeometry x="575" y="-1440" width="190" height="60" as="geometry"/>
                </mxCell>
                <mxCell id="p_zdCeveaHQMmSlJTnT9-17" value="" style="endArrow=none;html=1;fontSize=17;exitX=0.998;exitY=0.526;exitDx=0;exitDy=0;exitPerimeter=0;entryX=0.002;entryY=0.509;entryDx=0;entryDy=0;entryPerimeter=0;" edge="1" parent="27uLdjD5mK71LCT6hX2T-1" source="p_zdCeveaHQMmSlJTnT9-15" target="p_zdCeveaHQMmSlJTnT9-16">
                    <mxGeometry width="50" height="50" relative="1" as="geometry">
                        <mxPoint x="470" y="-1470" as="sourcePoint"/>
                        <mxPoint x="520" y="-1520" as="targetPoint"/>
                    </mxGeometry>
                </mxCell>
                <mxCell id="p_zdCeveaHQMmSlJTnT9-18" value="视图区" style="text;html=1;align=center;verticalAlign=middle;resizable=0;points=[];autosize=1;strokeColor=none;fillColor=none;fontSize=17;" vertex="1" parent="27uLdjD5mK71LCT6hX2T-1">
                    <mxGeometry x="625" y="-1520" width="70" height="30" as="geometry"/>
                </mxCell>
                <mxCell id="p_zdCeveaHQMmSlJTnT9-19" value="按钮" style="text;html=1;align=center;verticalAlign=middle;resizable=0;points=[];autosize=1;strokeColor=none;fillColor=none;fontSize=17;" vertex="1" parent="27uLdjD5mK71LCT6hX2T-1">
                    <mxGeometry x="635" y="-1487" width="50" height="30" as="geometry"/>
                </mxCell>
                <mxCell id="p_zdCeveaHQMmSlJTnT9-20" value="" style="verticalLabelPosition=bottom;verticalAlign=top;html=1;shadow=0;dashed=0;strokeWidth=1;shape=mxgraph.android.tab2;strokeColor=#c0c0c0;direction=north;" vertex="1" parent="27uLdjD5mK71LCT6hX2T-1">
                    <mxGeometry x="20" y="-1205" width="510" height="330" as="geometry"/>
                </mxCell>
                <mxCell id="p_zdCeveaHQMmSlJTnT9-33" value="" style="edgeStyle=none;html=1;" edge="1" parent="27uLdjD5mK71LCT6hX2T-1" source="p_zdCeveaHQMmSlJTnT9-34" target="p_zdCeveaHQMmSlJTnT9-41">
                    <mxGeometry relative="1" as="geometry"/>
                </mxCell>
                <mxCell id="p_zdCeveaHQMmSlJTnT9-34" value="" style="verticalLabelPosition=top;html=1;shadow=0;dashed=0;verticalAlign=bottom;strokeWidth=1;shape=mxgraph.ios.iPin;fillColor2=#ffff00;fillColor3=#888800;strokeColor=#999900;" vertex="1" parent="27uLdjD5mK71LCT6hX2T-1">
                    <mxGeometry x="80" y="-1140" width="10" height="25" as="geometry"/>
                </mxCell>
                <mxCell id="p_zdCeveaHQMmSlJTnT9-35" value="" style="edgeStyle=none;html=1;" edge="1" parent="27uLdjD5mK71LCT6hX2T-1" source="p_zdCeveaHQMmSlJTnT9-36" target="p_zdCeveaHQMmSlJTnT9-42">
                    <mxGeometry relative="1" as="geometry"/>
                </mxCell>
                <mxCell id="p_zdCeveaHQMmSlJTnT9-36" value="" style="verticalLabelPosition=top;html=1;shadow=0;dashed=0;verticalAlign=bottom;strokeWidth=1;shape=mxgraph.ios.iPin;fillColor2=#ccccff;fillColor3=#0000ff;strokeColor=#000066;" vertex="1" parent="27uLdjD5mK71LCT6hX2T-1">
                    <mxGeometry x="174" y="-1140" width="10" height="25" as="geometry"/>
                </mxCell>
                <mxCell id="p_zdCeveaHQMmSlJTnT9-37" value="" style="edgeStyle=none;html=1;" edge="1" parent="27uLdjD5mK71LCT6hX2T-1" source="p_zdCeveaHQMmSlJTnT9-38" target="p_zdCeveaHQMmSlJTnT9-43">
                    <mxGeometry relative="1" as="geometry"/>
                </mxCell>
                <mxCell id="p_zdCeveaHQMmSlJTnT9-38" value="" style="verticalLabelPosition=top;html=1;shadow=0;dashed=0;verticalAlign=bottom;strokeWidth=1;shape=mxgraph.ios.iPin;fillColor2=#dd0000;fillColor3=#440000;strokeColor=#660000;" vertex="1" parent="27uLdjD5mK71LCT6hX2T-1">
                    <mxGeometry x="280" y="-1140" width="10" height="25" as="geometry"/>
                </mxCell>
                <mxCell id="p_zdCeveaHQMmSlJTnT9-39" value="" style="edgeStyle=none;html=1;" edge="1" parent="27uLdjD5mK71LCT6hX2T-1" source="p_zdCeveaHQMmSlJTnT9-40" target="p_zdCeveaHQMmSlJTnT9-44">
                    <mxGeometry relative="1" as="geometry"/>
                </mxCell>
                <mxCell id="p_zdCeveaHQMmSlJTnT9-40" value="" style="verticalLabelPosition=top;html=1;shadow=0;dashed=0;verticalAlign=bottom;strokeWidth=1;shape=mxgraph.ios.iPin;fillColor2=#00dd00;fillColor3=#004400;strokeColor=#006600;" vertex="1" parent="27uLdjD5mK71LCT6hX2T-1">
                    <mxGeometry x="400" y="-1140" width="10" height="25" as="geometry"/>
                </mxCell>
                <mxCell id="p_zdCeveaHQMmSlJTnT9-41" value="第一步：" style="whiteSpace=wrap;html=1;verticalAlign=bottom;strokeColor=#999900;shadow=0;dashed=0;strokeWidth=1;" vertex="1" parent="27uLdjD5mK71LCT6hX2T-1">
                    <mxGeometry x="115" y="-1136.25" width="55" height="17.5" as="geometry"/>
                </mxCell>
                <mxCell id="p_zdCeveaHQMmSlJTnT9-42" value="第二步：" style="whiteSpace=wrap;html=1;verticalAlign=bottom;strokeColor=#000066;shadow=0;dashed=0;strokeWidth=1;" vertex="1" parent="27uLdjD5mK71LCT6hX2T-1">
                    <mxGeometry x="209.5" y="-1136.25" width="60.5" height="17.5" as="geometry"/>
                </mxCell>
                <mxCell id="p_zdCeveaHQMmSlJTnT9-43" value="第三步：" style="whiteSpace=wrap;html=1;verticalAlign=bottom;strokeColor=#660000;shadow=0;dashed=0;strokeWidth=1;" vertex="1" parent="27uLdjD5mK71LCT6hX2T-1">
                    <mxGeometry x="310" y="-1136.25" width="75" height="17.5" as="geometry"/>
                </mxCell>
                <mxCell id="p_zdCeveaHQMmSlJTnT9-44" value="完成" style="whiteSpace=wrap;html=1;verticalAlign=bottom;strokeColor=#006600;shadow=0;dashed=0;strokeWidth=1;" vertex="1" parent="27uLdjD5mK71LCT6hX2T-1">
                    <mxGeometry x="430" y="-1136.25" width="45" height="17.5" as="geometry"/>
                </mxCell>
                <mxCell id="p_zdCeveaHQMmSlJTnT9-45" value="1、输入容器名称&lt;br&gt;&lt;br&gt;输入框：[ 请输入容器名称 ]" style="text;html=1;align=left;verticalAlign=middle;resizable=0;points=[];autosize=1;strokeColor=none;fillColor=none;fontSize=17;" vertex="1" parent="27uLdjD5mK71LCT6hX2T-1">
                    <mxGeometry x="550" y="-1162.5" width="220" height="70" as="geometry"/>
                </mxCell>
                <mxCell id="p_zdCeveaHQMmSlJTnT9-46" value="容器名称：" style="fillColor=none;strokeColor=none;align=left;fontSize=14;" vertex="1" parent="27uLdjD5mK71LCT6hX2T-1">
                    <mxGeometry x="115" y="-1060" width="70" height="40" as="geometry"/>
                </mxCell>
                <mxCell id="p_zdCeveaHQMmSlJTnT9-47" value="请输入字母和数字" style="html=1;shadow=0;dashed=0;shape=mxgraph.bootstrap.rrect;rSize=5;fillColor=none;strokeColor=#999999;align=left;spacing=15;fontSize=14;fontColor=#6C767D;" vertex="1" parent="27uLdjD5mK71LCT6hX2T-1">
                    <mxGeometry x="200" y="-1060" width="200" height="40" as="geometry"/>
                </mxCell>
                <mxCell id="p_zdCeveaHQMmSlJTnT9-49" value="下一步" style="html=1;shadow=0;dashed=0;shape=mxgraph.bootstrap.rrect;rSize=5;strokeColor=none;strokeWidth=1;fillColor=#FFBC26;fontColor=#FFFFFF;whiteSpace=wrap;align=center;verticalAlign=middle;spacingLeft=0;fontStyle=0;fontSize=16;spacing=5;" vertex="1" parent="27uLdjD5mK71LCT6hX2T-1">
                    <mxGeometry x="385" y="-960" width="80" height="30" as="geometry"/>
                </mxCell>
                <mxCell id="p_zdCeveaHQMmSlJTnT9-50" value="" style="verticalLabelPosition=bottom;verticalAlign=top;html=1;shadow=0;dashed=0;strokeWidth=1;shape=mxgraph.android.tab2;strokeColor=#c0c0c0;direction=north;" vertex="1" parent="27uLdjD5mK71LCT6hX2T-1">
                    <mxGeometry x="20" y="-770" width="510" height="330" as="geometry"/>
                </mxCell>
                <mxCell id="p_zdCeveaHQMmSlJTnT9-51" value="" style="edgeStyle=none;html=1;" edge="1" parent="27uLdjD5mK71LCT6hX2T-1" source="p_zdCeveaHQMmSlJTnT9-52" target="p_zdCeveaHQMmSlJTnT9-59">
                    <mxGeometry relative="1" as="geometry"/>
                </mxCell>
                <mxCell id="p_zdCeveaHQMmSlJTnT9-52" value="" style="verticalLabelPosition=top;html=1;shadow=0;dashed=0;verticalAlign=bottom;strokeWidth=1;shape=mxgraph.ios.iPin;fillColor2=#ffff00;fillColor3=#888800;strokeColor=#999900;" vertex="1" parent="27uLdjD5mK71LCT6hX2T-1">
                    <mxGeometry x="80" y="-700" width="10" height="25" as="geometry"/>
                </mxCell>
                <mxCell id="p_zdCeveaHQMmSlJTnT9-53" value="" style="edgeStyle=none;html=1;" edge="1" parent="27uLdjD5mK71LCT6hX2T-1" source="p_zdCeveaHQMmSlJTnT9-54" target="p_zdCeveaHQMmSlJTnT9-60">
                    <mxGeometry relative="1" as="geometry"/>
                </mxCell>
                <mxCell id="p_zdCeveaHQMmSlJTnT9-54" value="" style="verticalLabelPosition=top;html=1;shadow=0;dashed=0;verticalAlign=bottom;strokeWidth=1;shape=mxgraph.ios.iPin;fillColor2=#ccccff;fillColor3=#0000ff;strokeColor=#000066;" vertex="1" parent="27uLdjD5mK71LCT6hX2T-1">
                    <mxGeometry x="174" y="-700" width="10" height="25" as="geometry"/>
                </mxCell>
                <mxCell id="p_zdCeveaHQMmSlJTnT9-55" value="" style="edgeStyle=none;html=1;" edge="1" parent="27uLdjD5mK71LCT6hX2T-1" source="p_zdCeveaHQMmSlJTnT9-56" target="p_zdCeveaHQMmSlJTnT9-61">
                    <mxGeometry relative="1" as="geometry"/>
                </mxCell>
                <mxCell id="p_zdCeveaHQMmSlJTnT9-56" value="" style="verticalLabelPosition=top;html=1;shadow=0;dashed=0;verticalAlign=bottom;strokeWidth=1;shape=mxgraph.ios.iPin;fillColor2=#dd0000;fillColor3=#440000;strokeColor=#660000;" vertex="1" parent="27uLdjD5mK71LCT6hX2T-1">
                    <mxGeometry x="280" y="-700" width="10" height="25" as="geometry"/>
                </mxCell>
                <mxCell id="p_zdCeveaHQMmSlJTnT9-57" value="" style="edgeStyle=none;html=1;" edge="1" parent="27uLdjD5mK71LCT6hX2T-1" source="p_zdCeveaHQMmSlJTnT9-58" target="p_zdCeveaHQMmSlJTnT9-62">
                    <mxGeometry relative="1" as="geometry"/>
                </mxCell>
                <mxCell id="p_zdCeveaHQMmSlJTnT9-58" value="" style="verticalLabelPosition=top;html=1;shadow=0;dashed=0;verticalAlign=bottom;strokeWidth=1;shape=mxgraph.ios.iPin;fillColor2=#00dd00;fillColor3=#004400;strokeColor=#006600;" vertex="1" parent="27uLdjD5mK71LCT6hX2T-1">
                    <mxGeometry x="400" y="-700" width="10" height="25" as="geometry"/>
                </mxCell>
                <mxCell id="p_zdCeveaHQMmSlJTnT9-59" value="第一步：" style="whiteSpace=wrap;html=1;verticalAlign=bottom;strokeColor=#999900;shadow=0;dashed=0;strokeWidth=1;" vertex="1" parent="27uLdjD5mK71LCT6hX2T-1">
                    <mxGeometry x="115" y="-696.25" width="55" height="17.5" as="geometry"/>
                </mxCell>
                <mxCell id="p_zdCeveaHQMmSlJTnT9-60" value="第二步：" style="whiteSpace=wrap;html=1;verticalAlign=bottom;strokeColor=#000066;shadow=0;dashed=0;strokeWidth=1;" vertex="1" parent="27uLdjD5mK71LCT6hX2T-1">
                    <mxGeometry x="209.5" y="-696.25" width="60.5" height="17.5" as="geometry"/>
                </mxCell>
                <mxCell id="p_zdCeveaHQMmSlJTnT9-61" value="第三步：" style="whiteSpace=wrap;html=1;verticalAlign=bottom;strokeColor=#660000;shadow=0;dashed=0;strokeWidth=1;" vertex="1" parent="27uLdjD5mK71LCT6hX2T-1">
                    <mxGeometry x="310" y="-696.25" width="75" height="17.5" as="geometry"/>
                </mxCell>
                <mxCell id="p_zdCeveaHQMmSlJTnT9-62" value="完成" style="whiteSpace=wrap;html=1;verticalAlign=bottom;strokeColor=#006600;shadow=0;dashed=0;strokeWidth=1;" vertex="1" parent="27uLdjD5mK71LCT6hX2T-1">
                    <mxGeometry x="430" y="-696.25" width="45" height="17.5" as="geometry"/>
                </mxCell>
                <mxCell id="p_zdCeveaHQMmSlJTnT9-63" value="默认" style="html=1;shadow=0;dashed=0;shape=mxgraph.bootstrap.checkbox2;labelPosition=right;verticalLabelPosition=middle;align=left;verticalAlign=middle;gradientColor=#DEDEDE;fillColor=#EDEDED;checked=1;spacing=5;checkedFill=#0085FC;checkedStroke=#ffffff;sketch=0;fontSize=17;" vertex="1" parent="27uLdjD5mK71LCT6hX2T-1">
                    <mxGeometry x="190" y="-650" width="10" height="10" as="geometry"/>
                </mxCell>
                <mxCell id="p_zdCeveaHQMmSlJTnT9-64" value="自定义" style="html=1;shadow=0;dashed=0;shape=mxgraph.bootstrap.checkbox2;labelPosition=right;verticalLabelPosition=middle;align=left;verticalAlign=middle;gradientColor=#DEDEDE;fillColor=#EDEDED;checked=0;spacing=5;fontColor=#6C767D;checkedFill=#0085FC;checkedStroke=#ffffff;sketch=0;fontSize=17;" vertex="1" parent="27uLdjD5mK71LCT6hX2T-1">
                    <mxGeometry x="250" y="-650" width="10" height="10" as="geometry"/>
                </mxCell>
                <mxCell id="p_zdCeveaHQMmSlJTnT9-67" value="2、选择容器和宿主机端口映射" style="text;html=1;align=center;verticalAlign=middle;resizable=0;points=[];autosize=1;strokeColor=none;fillColor=none;fontSize=17;" vertex="1" parent="27uLdjD5mK71LCT6hX2T-1">
                    <mxGeometry x="550" y="-770" width="250" height="30" as="geometry"/>
                </mxCell>
                <mxCell id="p_zdCeveaHQMmSlJTnT9-68" value="&lt;p style=&quot;line-height: 1&quot;&gt;初始值：默认 80:80&lt;br&gt;&lt;br&gt;默认状态下，只有点击下一步&lt;/p&gt;" style="text;html=1;align=left;verticalAlign=middle;resizable=0;points=[];autosize=1;strokeColor=none;fillColor=none;fontSize=17;" vertex="1" parent="27uLdjD5mK71LCT6hX2T-1">
                    <mxGeometry x="560" y="-695" width="240" height="90" as="geometry"/>
                </mxCell>
                <mxCell id="p_zdCeveaHQMmSlJTnT9-69" value="下一步" style="html=1;shadow=0;dashed=0;shape=mxgraph.bootstrap.rrect;rSize=5;strokeColor=none;strokeWidth=1;fillColor=#FFBC26;fontColor=#FFFFFF;whiteSpace=wrap;align=center;verticalAlign=middle;spacingLeft=0;fontStyle=0;fontSize=16;spacing=5;" vertex="1" parent="27uLdjD5mK71LCT6hX2T-1">
                    <mxGeometry x="380" y="-520" width="80" height="30" as="geometry"/>
                </mxCell>
                <mxCell id="p_zdCeveaHQMmSlJTnT9-70" value="&lt;p style=&quot;line-height: 1.6&quot;&gt;选择自定义&lt;br&gt;出现输入框，用户自定义宿主机和容器的端口&lt;/p&gt;" style="text;html=1;align=left;verticalAlign=middle;resizable=0;points=[];autosize=1;strokeColor=none;fillColor=none;fontSize=17;" vertex="1" parent="27uLdjD5mK71LCT6hX2T-1">
                    <mxGeometry x="560" y="-590" width="360" height="90" as="geometry"/>
                </mxCell>
                <mxCell id="p_zdCeveaHQMmSlJTnT9-72" value="" style="whiteSpace=wrap;html=1;shadow=0;dashed=0;fontSize=10;align=left;fillColor=#4D4D4D;strokeColor=#4D4D4D;fontColor=#FFFFFF;" vertex="1" parent="27uLdjD5mK71LCT6hX2T-1">
                    <mxGeometry x="216.2" y="-606.88" width="168.8" height="16.88" as="geometry"/>
                </mxCell>
                <mxCell id="p_zdCeveaHQMmSlJTnT9-73" value="" style="whiteSpace=wrap;html=1;shadow=0;dashed=0;fontSize=10;align=left;fillColor=#4D4D4D;strokeColor=#4D4D4D;fontColor=#FFFFFF;" vertex="1" parent="27uLdjD5mK71LCT6hX2T-1">
                    <mxGeometry x="216.2" y="-570" width="168.8" height="16.88" as="geometry"/>
                </mxCell>
                <mxCell id="p_zdCeveaHQMmSlJTnT9-74" value="&lt;font style=&quot;font-size: 12px&quot;&gt;容器端口：&lt;/font&gt;" style="text;html=1;align=center;verticalAlign=middle;resizable=0;points=[];autosize=1;strokeColor=none;fillColor=none;fontSize=17;" vertex="1" parent="27uLdjD5mK71LCT6hX2T-1">
                    <mxGeometry x="139" y="-613.44" width="80" height="30" as="geometry"/>
                </mxCell>
                <mxCell id="p_zdCeveaHQMmSlJTnT9-75" value="&lt;font style=&quot;font-size: 12px&quot;&gt;本机端口：&lt;/font&gt;" style="text;html=1;align=center;verticalAlign=middle;resizable=0;points=[];autosize=1;strokeColor=none;fillColor=none;fontSize=17;" vertex="1" parent="27uLdjD5mK71LCT6hX2T-1">
                    <mxGeometry x="139" y="-576.5600000000001" width="80" height="30" as="geometry"/>
                </mxCell>
                <mxCell id="p_zdCeveaHQMmSlJTnT9-76" value="" style="verticalLabelPosition=bottom;verticalAlign=top;html=1;shadow=0;dashed=0;strokeWidth=1;shape=mxgraph.android.tab2;strokeColor=#c0c0c0;direction=north;" vertex="1" parent="27uLdjD5mK71LCT6hX2T-1">
                    <mxGeometry x="14" y="-373" width="510" height="410" as="geometry"/>
                </mxCell>
                <mxCell id="p_zdCeveaHQMmSlJTnT9-77" value="" style="edgeStyle=none;html=1;" edge="1" parent="27uLdjD5mK71LCT6hX2T-1" source="p_zdCeveaHQMmSlJTnT9-78" target="p_zdCeveaHQMmSlJTnT9-85">
                    <mxGeometry relative="1" as="geometry"/>
                </mxCell>
                <mxCell id="p_zdCeveaHQMmSlJTnT9-78" value="" style="verticalLabelPosition=top;html=1;shadow=0;dashed=0;verticalAlign=bottom;strokeWidth=1;shape=mxgraph.ios.iPin;fillColor2=#ffff00;fillColor3=#888800;strokeColor=#999900;" vertex="1" parent="27uLdjD5mK71LCT6hX2T-1">
                    <mxGeometry x="80" y="-310" width="10" height="25" as="geometry"/>
                </mxCell>
                <mxCell id="p_zdCeveaHQMmSlJTnT9-79" value="" style="edgeStyle=none;html=1;" edge="1" parent="27uLdjD5mK71LCT6hX2T-1" source="p_zdCeveaHQMmSlJTnT9-80" target="p_zdCeveaHQMmSlJTnT9-86">
                    <mxGeometry relative="1" as="geometry"/>
                </mxCell>
                <mxCell id="p_zdCeveaHQMmSlJTnT9-80" value="" style="verticalLabelPosition=top;html=1;shadow=0;dashed=0;verticalAlign=bottom;strokeWidth=1;shape=mxgraph.ios.iPin;fillColor2=#ccccff;fillColor3=#0000ff;strokeColor=#000066;" vertex="1" parent="27uLdjD5mK71LCT6hX2T-1">
                    <mxGeometry x="174" y="-310" width="10" height="25" as="geometry"/>
                </mxCell>
                <mxCell id="p_zdCeveaHQMmSlJTnT9-81" value="" style="edgeStyle=none;html=1;" edge="1" parent="27uLdjD5mK71LCT6hX2T-1" source="p_zdCeveaHQMmSlJTnT9-82" target="p_zdCeveaHQMmSlJTnT9-87">
                    <mxGeometry relative="1" as="geometry"/>
                </mxCell>
                <mxCell id="p_zdCeveaHQMmSlJTnT9-82" value="" style="verticalLabelPosition=top;html=1;shadow=0;dashed=0;verticalAlign=bottom;strokeWidth=1;shape=mxgraph.ios.iPin;fillColor2=#dd0000;fillColor3=#440000;strokeColor=#660000;" vertex="1" parent="27uLdjD5mK71LCT6hX2T-1">
                    <mxGeometry x="280" y="-310" width="10" height="25" as="geometry"/>
                </mxCell>
                <mxCell id="p_zdCeveaHQMmSlJTnT9-83" value="" style="edgeStyle=none;html=1;" edge="1" parent="27uLdjD5mK71LCT6hX2T-1" source="p_zdCeveaHQMmSlJTnT9-84" target="p_zdCeveaHQMmSlJTnT9-88">
                    <mxGeometry relative="1" as="geometry"/>
                </mxCell>
                <mxCell id="p_zdCeveaHQMmSlJTnT9-84" value="" style="verticalLabelPosition=top;html=1;shadow=0;dashed=0;verticalAlign=bottom;strokeWidth=1;shape=mxgraph.ios.iPin;fillColor2=#00dd00;fillColor3=#004400;strokeColor=#006600;" vertex="1" parent="27uLdjD5mK71LCT6hX2T-1">
                    <mxGeometry x="400" y="-310" width="10" height="25" as="geometry"/>
                </mxCell>
                <mxCell id="p_zdCeveaHQMmSlJTnT9-85" value="第一步：" style="whiteSpace=wrap;html=1;verticalAlign=bottom;strokeColor=#999900;shadow=0;dashed=0;strokeWidth=1;" vertex="1" parent="27uLdjD5mK71LCT6hX2T-1">
                    <mxGeometry x="115" y="-306.25" width="55" height="17.5" as="geometry"/>
                </mxCell>
                <mxCell id="p_zdCeveaHQMmSlJTnT9-86" value="第二步：" style="whiteSpace=wrap;html=1;verticalAlign=bottom;strokeColor=#000066;shadow=0;dashed=0;strokeWidth=1;" vertex="1" parent="27uLdjD5mK71LCT6hX2T-1">
                    <mxGeometry x="209.5" y="-306.25" width="60.5" height="17.5" as="geometry"/>
                </mxCell>
                <mxCell id="p_zdCeveaHQMmSlJTnT9-87" value="第三步：" style="whiteSpace=wrap;html=1;verticalAlign=bottom;strokeColor=#660000;shadow=0;dashed=0;strokeWidth=1;" vertex="1" parent="27uLdjD5mK71LCT6hX2T-1">
                    <mxGeometry x="310" y="-306.25" width="75" height="17.5" as="geometry"/>
                </mxCell>
                <mxCell id="p_zdCeveaHQMmSlJTnT9-88" value="完成" style="whiteSpace=wrap;html=1;verticalAlign=bottom;strokeColor=#006600;shadow=0;dashed=0;strokeWidth=1;" vertex="1" parent="27uLdjD5mK71LCT6hX2T-1">
                    <mxGeometry x="430" y="-306.25" width="45" height="17.5" as="geometry"/>
                </mxCell>
                <mxCell id="p_zdCeveaHQMmSlJTnT9-89" value="完成" style="html=1;shadow=0;dashed=0;shape=mxgraph.bootstrap.rrect;rSize=5;strokeColor=none;strokeWidth=1;fillColor=#FFBC26;fontColor=#FFFFFF;whiteSpace=wrap;align=center;verticalAlign=middle;spacingLeft=0;fontStyle=0;fontSize=16;spacing=5;" vertex="1" parent="27uLdjD5mK71LCT6hX2T-1">
                    <mxGeometry x="395" y="-50" width="80" height="30" as="geometry"/>
                </mxCell>
                <mxCell id="p_zdCeveaHQMmSlJTnT9-90" value="&amp;nbsp; &amp;nbsp; &amp;nbsp; &amp;nbsp;选择文件夹" style="html=1;shadow=0;dashed=0;shape=mxgraph.bootstrap.rrect;rSize=5;strokeColor=#1CA5B8;strokeWidth=1;fillColor=none;fontColor=#1CA5B8;whiteSpace=wrap;align=center;verticalAlign=middle;spacingLeft=0;fontStyle=0;fontSize=16;spacing=5;" vertex="1" parent="27uLdjD5mK71LCT6hX2T-1">
                    <mxGeometry x="125" y="-270" width="300" height="60" as="geometry"/>
                </mxCell>
                <mxCell id="p_zdCeveaHQMmSlJTnT9-91" value="" style="html=1;verticalLabelPosition=bottom;align=center;labelBackgroundColor=#ffffff;verticalAlign=top;strokeWidth=2;strokeColor=#0080F0;shadow=0;dashed=0;shape=mxgraph.ios7.icons.folder;fontSize=12;" vertex="1" parent="27uLdjD5mK71LCT6hX2T-1">
                    <mxGeometry x="209.5" y="-249.75" width="30" height="19.5" as="geometry"/>
                </mxCell>
                <mxCell id="p_zdCeveaHQMmSlJTnT9-92" value="&lt;font style=&quot;font-size: 20px&quot;&gt;3、选择数据卷volume文件夹&lt;/font&gt;" style="text;html=1;align=center;verticalAlign=middle;resizable=0;points=[];autosize=1;strokeColor=none;fillColor=none;fontSize=12;" vertex="1" parent="27uLdjD5mK71LCT6hX2T-1">
                    <mxGeometry x="565" y="-380" width="270" height="20" as="geometry"/>
                </mxCell>
                <mxCell id="p_zdCeveaHQMmSlJTnT9-93" value="" style="endArrow=classic;html=1;fontSize=17;exitX=1.002;exitY=0.473;exitDx=0;exitDy=0;exitPerimeter=0;" edge="1" parent="27uLdjD5mK71LCT6hX2T-1" source="p_zdCeveaHQMmSlJTnT9-90">
                    <mxGeometry width="50" height="50" relative="1" as="geometry">
                        <mxPoint x="420" y="-100" as="sourcePoint"/>
                        <mxPoint x="580" y="-260" as="targetPoint"/>
                    </mxGeometry>
                </mxCell>
                <mxCell id="p_zdCeveaHQMmSlJTnT9-94" value="&lt;p style=&quot;line-height: 1.4&quot;&gt;点击该区域，调起电脑文件选择器，&lt;br&gt;只允许选择文件夹，（支持多选）&lt;/p&gt;&lt;p style=&quot;line-height: 1.4&quot;&gt;&lt;br&gt;出现数据卷详情卡片的时候，该选择区域消失&lt;/p&gt;" style="text;html=1;align=left;verticalAlign=middle;resizable=0;points=[];autosize=1;strokeColor=none;fillColor=none;fontSize=17;" vertex="1" parent="27uLdjD5mK71LCT6hX2T-1">
                    <mxGeometry x="590" y="-330" width="360" height="150" as="geometry"/>
                </mxCell>
                <mxCell id="p_zdCeveaHQMmSlJTnT9-97" value="" style="html=1;shadow=0;dashed=0;shape=mxgraph.bootstrap.rrect;rSize=5;strokeColor=#DFDFDF;html=1;whiteSpace=wrap;fillColor=#FFFFFF;fontColor=#000000;fontSize=17;" vertex="1" parent="27uLdjD5mK71LCT6hX2T-1">
                    <mxGeometry x="175" y="-191" width="200" height="120" as="geometry"/>
                </mxCell>
                <mxCell id="p_zdCeveaHQMmSlJTnT9-98" value="&lt;font color=&quot;#000000&quot;&gt;数据卷详情&lt;/font&gt;" style="html=1;shadow=0;dashed=0;shape=mxgraph.bootstrap.topButton;strokeColor=inherit;fillColor=#F7F7F7;rSize=5;perimeter=none;whiteSpace=wrap;resizeWidth=1;align=left;spacing=10;fontSize=17;" vertex="1" parent="p_zdCeveaHQMmSlJTnT9-97">
                    <mxGeometry width="200" height="30" relative="1" as="geometry"/>
                </mxCell>
                <mxCell id="p_zdCeveaHQMmSlJTnT9-99" value="&lt;span style=&quot;font-family: &amp;#34;helvetica&amp;#34; ; font-size: 14px&quot;&gt;文件夹名称：xxxx&lt;/span&gt;" style="strokeColor=inherit;fillColor=inherit;gradientColor=inherit;fontColor=inherit;html=1;shadow=0;dashed=0;perimeter=none;whiteSpace=wrap;resizeWidth=1;align=left;spacing=10;fontSize=17;" vertex="1" parent="p_zdCeveaHQMmSlJTnT9-97">
                    <mxGeometry width="200" height="30" relative="1" as="geometry">
                        <mxPoint y="30" as="offset"/>
                    </mxGeometry>
                </mxCell>
                <mxCell id="p_zdCeveaHQMmSlJTnT9-100" value="&lt;span style=&quot;font-size: 15px&quot;&gt;路径：/desktop/xxx/xx&lt;/span&gt;" style="strokeColor=inherit;fillColor=inherit;gradientColor=inherit;fontColor=inherit;html=1;shadow=0;dashed=0;perimeter=none;whiteSpace=wrap;resizeWidth=1;align=left;spacing=10;fontSize=17;" vertex="1" parent="p_zdCeveaHQMmSlJTnT9-97">
                    <mxGeometry width="200" height="30" relative="1" as="geometry">
                        <mxPoint y="60" as="offset"/>
                    </mxGeometry>
                </mxCell>
                <mxCell id="p_zdCeveaHQMmSlJTnT9-104" value="&lt;font style=&quot;font-size: 14px&quot;&gt;修改&lt;/font&gt;" style="html=1;shadow=0;dashed=0;shape=mxgraph.bootstrap.rrect;rSize=5;strokeColor=none;strokeWidth=1;fillColor=#343A40;fontColor=#ffffff;whiteSpace=wrap;align=center;verticalAlign=middle;spacingLeft=0;fontStyle=0;fontSize=16;spacing=5;" vertex="1" parent="p_zdCeveaHQMmSlJTnT9-97">
                    <mxGeometry x="135" y="100" width="65" height="20" as="geometry"/>
                </mxCell>
                <mxCell id="p_zdCeveaHQMmSlJTnT9-105" value="" style="endArrow=classic;html=1;fontSize=14;fontColor=#000000;exitX=1.01;exitY=1.023;exitDx=0;exitDy=0;exitPerimeter=0;" edge="1" parent="27uLdjD5mK71LCT6hX2T-1" source="p_zdCeveaHQMmSlJTnT9-99" target="p_zdCeveaHQMmSlJTnT9-107">
                    <mxGeometry width="50" height="50" relative="1" as="geometry">
                        <mxPoint x="420" y="-220" as="sourcePoint"/>
                        <mxPoint x="580" y="-140" as="targetPoint"/>
                    </mxGeometry>
                </mxCell>
                <mxCell id="p_zdCeveaHQMmSlJTnT9-107" value="&lt;p style=&quot;line-height: 1.6&quot;&gt;&lt;/p&gt;&lt;div style=&quot;text-align: left&quot;&gt;&lt;span style=&quot;line-height: 1.6&quot;&gt;选择完文件夹，出现一个详情卡片&lt;/span&gt;&lt;/div&gt;&lt;div style=&quot;text-align: left&quot;&gt;&lt;span style=&quot;line-height: 1.6&quot;&gt;文件夹名称&lt;/span&gt;&lt;/div&gt;&lt;div style=&quot;text-align: left&quot;&gt;&lt;span style=&quot;line-height: 1.6&quot;&gt;文件夹路径&lt;/span&gt;&lt;/div&gt;&lt;div style=&quot;text-align: left&quot;&gt;&lt;span style=&quot;line-height: 1.6&quot;&gt;支持修改&lt;/span&gt;&lt;/div&gt;&lt;p&gt;&lt;/p&gt;" style="text;html=1;align=center;verticalAlign=middle;resizable=0;points=[];autosize=1;strokeColor=none;fillColor=none;fontSize=14;fontColor=#FFFFFF;" vertex="1" parent="27uLdjD5mK71LCT6hX2T-1">
                    <mxGeometry x="597" y="-150" width="230" height="120" as="geometry"/>
                </mxCell>
                <mxCell id="p_zdCeveaHQMmSlJTnT9-108" value="上一步" style="html=1;shadow=0;dashed=0;shape=mxgraph.bootstrap.rrect;rSize=5;strokeColor=none;strokeWidth=1;fillColor=#F8F9FA;fontColor=#000000;whiteSpace=wrap;align=left;verticalAlign=middle;spacingLeft=0;fontStyle=1;fontSize=14;spacing=5;" vertex="1" parent="27uLdjD5mK71LCT6hX2T-1">
                    <mxGeometry x="320" y="-45" width="55" height="20" as="geometry"/>
                </mxCell>
                <mxCell id="p_zdCeveaHQMmSlJTnT9-109" value="上一步" style="html=1;shadow=0;dashed=0;shape=mxgraph.bootstrap.rrect;rSize=5;strokeColor=none;strokeWidth=1;fillColor=#F8F9FA;fontColor=#000000;whiteSpace=wrap;align=left;verticalAlign=middle;spacingLeft=0;fontStyle=1;fontSize=14;spacing=5;" vertex="1" parent="27uLdjD5mK71LCT6hX2T-1">
                    <mxGeometry x="310" y="-515" width="55" height="20" as="geometry"/>
                </mxCell>
                <mxCell id="p_zdCeveaHQMmSlJTnT9-111" value="" style="verticalLabelPosition=bottom;verticalAlign=top;html=1;shadow=0;dashed=0;strokeWidth=1;shape=mxgraph.android.tab2;strokeColor=#c0c0c0;direction=north;" vertex="1" parent="27uLdjD5mK71LCT6hX2T-1">
                    <mxGeometry x="15.25" y="100" width="510" height="410" as="geometry"/>
                </mxCell>
                <mxCell id="p_zdCeveaHQMmSlJTnT9-114" value="提示" style="shape=rect;rounded=1;strokeColor=none;fillColor=#F6F6F8;gradientColor=none;shadow=0;glass=0;dashed=1;fontFamily=Helvetica;fontSize=14;fontColor=#333333;align=center;html=0;verticalAlign=top;whiteSpace=wrap;spacing=8;spacingTop=0;" vertex="1" parent="27uLdjD5mK71LCT6hX2T-1">
                    <mxGeometry x="121.5" y="219" width="295" height="146" as="geometry"/>
                </mxCell>
                <mxCell id="p_zdCeveaHQMmSlJTnT9-115" value="已经配置完成了&#10;是否马上创建容器" style="shape=text;align=center;verticalAlign=middle;fontSize=15;fontColor=#333333;strokeColor=none;fillColor=none;spacingTop=-8;resizeWidth=1;whiteSpace=wrap;spacingBottom=-1;" vertex="1" parent="p_zdCeveaHQMmSlJTnT9-114">
                    <mxGeometry width="295" height="92" relative="1" as="geometry">
                        <mxPoint y="27" as="offset"/>
                    </mxGeometry>
                </mxCell>
                <mxCell id="p_zdCeveaHQMmSlJTnT9-116" value="取消" style="shape=text;align=center;verticalAlign=middle;fontSize=12;fontColor=#0680FF;strokeColor=none;fillColor=none;spacingTop=3;resizeWidth=1;" vertex="1" parent="p_zdCeveaHQMmSlJTnT9-114">
                    <mxGeometry y="1" width="147.5" height="20" relative="1" as="geometry">
                        <mxPoint x="9" y="-26" as="offset"/>
                    </mxGeometry>
                </mxCell>
                <mxCell id="p_zdCeveaHQMmSlJTnT9-117" value="确认" style="shape=text;align=center;verticalAlign=middle;fontSize=12;fontColor=#0680FF;strokeColor=none;fillColor=none;spacingTop=3;resizeWidth=1;" vertex="1" parent="p_zdCeveaHQMmSlJTnT9-114">
                    <mxGeometry x="0.5" y="1" width="147.5" height="20" relative="1" as="geometry">
                        <mxPoint x="-3" y="-26" as="offset"/>
                    </mxGeometry>
                </mxCell>
                <mxCell id="p_zdCeveaHQMmSlJTnT9-118" value="" style="edgeStyle=none;html=1;" edge="1" parent="27uLdjD5mK71LCT6hX2T-1" source="p_zdCeveaHQMmSlJTnT9-119" target="p_zdCeveaHQMmSlJTnT9-126">
                    <mxGeometry relative="1" as="geometry"/>
                </mxCell>
                <mxCell id="p_zdCeveaHQMmSlJTnT9-119" value="" style="verticalLabelPosition=top;html=1;shadow=0;dashed=0;verticalAlign=bottom;strokeWidth=1;shape=mxgraph.ios.iPin;fillColor2=#ffff00;fillColor3=#888800;strokeColor=#999900;" vertex="1" parent="27uLdjD5mK71LCT6hX2T-1">
                    <mxGeometry x="71.5" y="170" width="10" height="25" as="geometry"/>
                </mxCell>
                <mxCell id="p_zdCeveaHQMmSlJTnT9-120" value="" style="edgeStyle=none;html=1;" edge="1" parent="27uLdjD5mK71LCT6hX2T-1" source="p_zdCeveaHQMmSlJTnT9-121" target="p_zdCeveaHQMmSlJTnT9-127">
                    <mxGeometry relative="1" as="geometry"/>
                </mxCell>
                <mxCell id="p_zdCeveaHQMmSlJTnT9-121" value="" style="verticalLabelPosition=top;html=1;shadow=0;dashed=0;verticalAlign=bottom;strokeWidth=1;shape=mxgraph.ios.iPin;fillColor2=#ccccff;fillColor3=#0000ff;strokeColor=#000066;" vertex="1" parent="27uLdjD5mK71LCT6hX2T-1">
                    <mxGeometry x="165.5" y="170" width="10" height="25" as="geometry"/>
                </mxCell>
                <mxCell id="p_zdCeveaHQMmSlJTnT9-122" value="" style="edgeStyle=none;html=1;" edge="1" parent="27uLdjD5mK71LCT6hX2T-1" source="p_zdCeveaHQMmSlJTnT9-123" target="p_zdCeveaHQMmSlJTnT9-128">
                    <mxGeometry relative="1" as="geometry"/>
                </mxCell>
                <mxCell id="p_zdCeveaHQMmSlJTnT9-123" value="" style="verticalLabelPosition=top;html=1;shadow=0;dashed=0;verticalAlign=bottom;strokeWidth=1;shape=mxgraph.ios.iPin;fillColor2=#dd0000;fillColor3=#440000;strokeColor=#660000;" vertex="1" parent="27uLdjD5mK71LCT6hX2T-1">
                    <mxGeometry x="271.5" y="170" width="10" height="25" as="geometry"/>
                </mxCell>
                <mxCell id="p_zdCeveaHQMmSlJTnT9-124" value="" style="edgeStyle=none;html=1;" edge="1" parent="27uLdjD5mK71LCT6hX2T-1" source="p_zdCeveaHQMmSlJTnT9-125" target="p_zdCeveaHQMmSlJTnT9-129">
                    <mxGeometry relative="1" as="geometry"/>
                </mxCell>
                <mxCell id="p_zdCeveaHQMmSlJTnT9-125" value="" style="verticalLabelPosition=top;html=1;shadow=0;dashed=0;verticalAlign=bottom;strokeWidth=1;shape=mxgraph.ios.iPin;fillColor2=#00dd00;fillColor3=#004400;strokeColor=#006600;" vertex="1" parent="27uLdjD5mK71LCT6hX2T-1">
                    <mxGeometry x="391.5" y="170" width="10" height="25" as="geometry"/>
                </mxCell>
                <mxCell id="p_zdCeveaHQMmSlJTnT9-126" value="第一步：" style="whiteSpace=wrap;html=1;verticalAlign=bottom;strokeColor=#999900;shadow=0;dashed=0;strokeWidth=1;" vertex="1" parent="27uLdjD5mK71LCT6hX2T-1">
                    <mxGeometry x="106.5" y="173.75" width="55" height="17.5" as="geometry"/>
                </mxCell>
                <mxCell id="p_zdCeveaHQMmSlJTnT9-127" value="第二步：" style="whiteSpace=wrap;html=1;verticalAlign=bottom;strokeColor=#000066;shadow=0;dashed=0;strokeWidth=1;" vertex="1" parent="27uLdjD5mK71LCT6hX2T-1">
                    <mxGeometry x="201" y="173.75" width="60.5" height="17.5" as="geometry"/>
                </mxCell>
                <mxCell id="p_zdCeveaHQMmSlJTnT9-128" value="第三步：" style="whiteSpace=wrap;html=1;verticalAlign=bottom;strokeColor=#660000;shadow=0;dashed=0;strokeWidth=1;" vertex="1" parent="27uLdjD5mK71LCT6hX2T-1">
                    <mxGeometry x="301.5" y="173.75" width="75" height="17.5" as="geometry"/>
                </mxCell>
                <mxCell id="p_zdCeveaHQMmSlJTnT9-129" value="完成" style="whiteSpace=wrap;html=1;verticalAlign=bottom;strokeColor=#006600;shadow=0;dashed=0;strokeWidth=1;" vertex="1" parent="27uLdjD5mK71LCT6hX2T-1">
                    <mxGeometry x="421.5" y="173.75" width="45" height="17.5" as="geometry"/>
                </mxCell>
                <mxCell id="p_zdCeveaHQMmSlJTnT9-130" value="&lt;font style=&quot;font-size: 17px&quot;&gt;弹窗提示是否立即创建容器&lt;/font&gt;" style="text;html=1;align=center;verticalAlign=middle;resizable=0;points=[];autosize=1;strokeColor=none;fillColor=none;fontSize=12;fontColor=#FFFFFF;" vertex="1" parent="27uLdjD5mK71LCT6hX2T-1">
                    <mxGeometry x="560" y="130" width="220" height="20" as="geometry"/>
                </mxCell>
                <mxCell id="p_zdCeveaHQMmSlJTnT9-131" value="&lt;p style=&quot;line-height: 1.4&quot;&gt;&lt;/p&gt;&lt;div style=&quot;text-align: left&quot;&gt;&lt;span style=&quot;line-height: 2.5&quot;&gt;取消：显示第三步页面交互&lt;/span&gt;&lt;/div&gt;&lt;div style=&quot;text-align: left&quot;&gt;&lt;span&gt;确定：跳转loading页面进行加载&lt;/span&gt;&lt;/div&gt;&lt;p&gt;&lt;/p&gt;" style="text;html=1;align=center;verticalAlign=middle;resizable=0;points=[];autosize=1;strokeColor=none;fillColor=none;fontSize=17;fontColor=#FFFFFF;" vertex="1" parent="27uLdjD5mK71LCT6hX2T-1">
                    <mxGeometry x="545" y="242" width="260" height="100" as="geometry"/>
                </mxCell>
            </root>
        </mxGraphModel>
    </diagram>
    <diagram id="ZY2Z-TiaMthCMwKG_cw0" name="首页">
        <mxGraphModel dx="1145" dy="747" grid="1" gridSize="10" guides="1" tooltips="1" connect="1" arrows="1" fold="1" page="1" pageScale="1" pageWidth="827" pageHeight="583" background="none" math="0" shadow="1">
            <root>
                <mxCell id="0"/>
                <mxCell id="1" parent="0"/>
                <mxCell id="26" value="" style="edgeStyle=none;html=1;fontSize=24;" parent="1" source="23" target="25" edge="1">
                    <mxGeometry relative="1" as="geometry"/>
                </mxCell>
                <mxCell id="33" value="" style="edgeStyle=none;html=1;fontSize=24;" parent="1" source="23" target="29" edge="1">
                    <mxGeometry relative="1" as="geometry"/>
                </mxCell>
                <mxCell id="23" value="" style="verticalLabelPosition=bottom;verticalAlign=top;html=1;shadow=0;dashed=0;strokeWidth=1;shape=mxgraph.android.phone2;strokeColor=#c0c0c0;direction=south;" parent="1" vertex="1">
                    <mxGeometry x="75" y="60" width="390" height="200" as="geometry"/>
                </mxCell>
                <mxCell id="24" value="&lt;font style=&quot;font-size: 24px&quot;&gt;首屏初始化页面&lt;/font&gt;" style="text;html=1;align=center;verticalAlign=middle;resizable=0;points=[];autosize=1;strokeColor=none;fillColor=none;" parent="1" vertex="1">
                    <mxGeometry x="180" y="150" width="180" height="20" as="geometry"/>
                </mxCell>
                <mxCell id="28" value="" style="edgeStyle=none;html=1;fontSize=18;" parent="1" source="25" target="27" edge="1">
                    <mxGeometry relative="1" as="geometry"/>
                </mxCell>
                <mxCell id="25" value="&lt;div&gt;&lt;span&gt;&lt;font style=&quot;font-size: 18px&quot;&gt;&lt;br&gt;&lt;/font&gt;&lt;/span&gt;&lt;/div&gt;&lt;div&gt;&lt;span&gt;&lt;font style=&quot;font-size: 18px&quot;&gt;SVG动画&lt;/font&gt;&lt;/span&gt;&lt;/div&gt;" style="rounded=1;whiteSpace=wrap;html=1;verticalAlign=top;strokeColor=#c0c0c0;shadow=0;dashed=0;strokeWidth=1;align=center;" parent="1" vertex="1">
                    <mxGeometry x="570" y="126" width="120" height="70" as="geometry"/>
                </mxCell>
                <mxCell id="27" value="&lt;div&gt;&lt;span&gt;&lt;font style=&quot;font-size: 18px&quot;&gt;&lt;br&gt;&lt;/font&gt;&lt;/span&gt;&lt;/div&gt;&lt;div&gt;&lt;span&gt;&lt;font style=&quot;font-size: 18px&quot;&gt;&amp;nbsp; 加载完毕（默认值3s）&lt;/font&gt;&lt;/span&gt;&lt;/div&gt;" style="rounded=1;whiteSpace=wrap;html=1;verticalAlign=top;strokeColor=#c0c0c0;shadow=0;dashed=0;strokeWidth=1;align=center;" parent="1" vertex="1">
                    <mxGeometry x="770" y="126" width="220" height="70" as="geometry"/>
                </mxCell>
                <mxCell id="29" value="" style="verticalLabelPosition=bottom;verticalAlign=top;html=1;shadow=0;dashed=0;strokeWidth=1;shape=mxgraph.android.phone2;strokeColor=#c0c0c0;direction=south;" parent="1" vertex="1">
                    <mxGeometry x="75" y="340" width="390" height="200" as="geometry"/>
                </mxCell>
                <mxCell id="30" value="&lt;font style=&quot;font-size: 24px&quot;&gt;首页--&amp;gt;跳转功能页面&lt;/font&gt;" style="text;html=1;align=center;verticalAlign=middle;resizable=0;points=[];autosize=1;strokeColor=none;fillColor=none;fontSize=18;" parent="1" vertex="1">
                    <mxGeometry x="150" y="425" width="240" height="30" as="geometry"/>
                </mxCell>
                <mxCell id="35" value="" style="html=1;verticalLabelPosition=bottom;labelBackgroundColor=#ffffff;verticalAlign=top;shadow=0;dashed=0;strokeWidth=2;shape=mxgraph.ios7.misc.loading_circle;fontSize=24;" parent="1" vertex="1">
                    <mxGeometry x="250" y="196" width="40" height="40" as="geometry"/>
                </mxCell>
                <mxCell id="51" value="" style="edgeStyle=none;html=1;fontSize=24;" parent="1" source="36" target="45" edge="1">
                    <mxGeometry relative="1" as="geometry"/>
                </mxCell>
                <mxCell id="36" value="" style="verticalLabelPosition=bottom;verticalAlign=top;html=1;shadow=0;dashed=0;strokeWidth=1;shape=mxgraph.android.phone2;strokeColor=#c0c0c0;direction=south;" parent="1" vertex="1">
                    <mxGeometry x="46" y="680" width="735" height="390" as="geometry"/>
                </mxCell>
                <mxCell id="40" value="&lt;font style=&quot;font-size: 36px&quot;&gt;初始样式&lt;/font&gt;" style="text;html=1;align=center;verticalAlign=middle;resizable=0;points=[];autosize=1;strokeColor=none;fillColor=none;" parent="1" vertex="1">
                    <mxGeometry x="320" y="630" width="160" height="30" as="geometry"/>
                </mxCell>
                <mxCell id="43" value="&lt;font style=&quot;font-size: 24px&quot;&gt;开始&lt;/font&gt;" style="html=1;shadow=0;dashed=0;shape=mxgraph.bootstrap.rrect;rSize=5;strokeColor=none;strokeWidth=1;fillColor=#0085FC;fontColor=#FFFFFF;whiteSpace=wrap;align=center;verticalAlign=middle;spacingLeft=0;fontStyle=0;fontSize=16;spacing=5;" parent="1" vertex="1">
                    <mxGeometry x="324" y="827" width="180" height="95" as="geometry"/>
                </mxCell>
                <mxCell id="45" value="" style="verticalLabelPosition=bottom;verticalAlign=top;html=1;shadow=0;dashed=0;strokeWidth=1;shape=mxgraph.android.phone2;strokeColor=#c0c0c0;direction=south;" parent="1" vertex="1">
                    <mxGeometry x="880" y="680" width="740" height="390" as="geometry"/>
                </mxCell>
                <mxCell id="46" value="&lt;font style=&quot;font-size: 36px&quot;&gt;展开样式&lt;/font&gt;" style="text;html=1;align=center;verticalAlign=middle;resizable=0;points=[];autosize=1;strokeColor=none;fillColor=none;" parent="1" vertex="1">
                    <mxGeometry x="1180" y="620" width="160" height="30" as="geometry"/>
                </mxCell>
                <mxCell id="49" value="" style="edgeStyle=segmentEdgeStyle;endArrow=classic;html=1;fontSize=24;" parent="1" edge="1">
                    <mxGeometry width="50" height="50" relative="1" as="geometry">
                        <mxPoint x="370" y="980" as="sourcePoint"/>
                        <mxPoint x="420" y="930" as="targetPoint"/>
                    </mxGeometry>
                </mxCell>
                <mxCell id="50" value="鼠标滑过" style="text;html=1;align=center;verticalAlign=middle;resizable=0;points=[];autosize=1;strokeColor=none;fillColor=none;fontSize=24;" parent="1" vertex="1">
                    <mxGeometry x="250" y="965" width="110" height="30" as="geometry"/>
                </mxCell>
                <mxCell id="52" value="容器列表" style="html=1;shadow=0;dashed=0;shape=mxgraph.bootstrap.rrect;rSize=5;strokeColor=none;strokeWidth=1;fillColor=#0085FC;fontColor=#FFFFFF;whiteSpace=wrap;align=center;verticalAlign=middle;spacingLeft=0;fontStyle=0;fontSize=16;spacing=5;" parent="1" vertex="1">
                    <mxGeometry x="1197.5" y="830" width="100" height="90" as="geometry"/>
                </mxCell>
                <mxCell id="53" value="镜像制作" style="html=1;shadow=0;dashed=0;shape=mxgraph.bootstrap.rrect;rSize=5;strokeColor=none;strokeWidth=1;fillColor=#6C767D;fontColor=#FFFFFF;whiteSpace=wrap;align=center;verticalAlign=middle;spacingLeft=0;fontStyle=0;fontSize=16;spacing=5;" parent="1" vertex="1">
                    <mxGeometry x="960" y="830" width="100" height="90" as="geometry"/>
                </mxCell>
                <mxCell id="54" value="镜像列表" style="html=1;shadow=0;dashed=0;shape=mxgraph.bootstrap.rrect;rSize=5;strokeColor=none;strokeWidth=1;fillColor=#33A64C;fontColor=#FFFFFF;whiteSpace=wrap;align=center;verticalAlign=middle;spacingLeft=0;fontStyle=0;fontSize=16;spacing=5;" parent="1" vertex="1">
                    <mxGeometry x="1080" y="830" width="100" height="90" as="geometry"/>
                </mxCell>
                <mxCell id="55" value="数据卷挂载" style="html=1;shadow=0;dashed=0;shape=mxgraph.bootstrap.rrect;rSize=5;strokeColor=none;strokeWidth=1;fillColor=#FFBC26;fontColor=#FFFFFF;whiteSpace=wrap;align=center;verticalAlign=middle;spacingLeft=0;fontStyle=0;fontSize=16;spacing=5;" parent="1" vertex="1">
                    <mxGeometry x="1320" y="830" width="100" height="90" as="geometry"/>
                </mxCell>
                <mxCell id="56" value="镜像市场" style="html=1;shadow=0;dashed=0;shape=mxgraph.bootstrap.rrect;rSize=5;strokeColor=none;strokeWidth=1;fillColor=#1CA5B8;fontColor=#FFFFFF;whiteSpace=wrap;align=center;verticalAlign=middle;spacingLeft=0;fontStyle=0;fontSize=16;spacing=5;" parent="1" vertex="1">
                    <mxGeometry x="1440" y="828" width="100" height="90" as="geometry"/>
                </mxCell>
            </root>
        </mxGraphModel>
    </diagram>
    <diagram id="aL-fEKTfxlIDBct84glV" name="镜像商场">
        <mxGraphModel dx="914" dy="747" grid="1" gridSize="10" guides="1" tooltips="1" connect="1" arrows="1" fold="1" page="1" pageScale="1" pageWidth="980" pageHeight="1390" background="none" math="0" shadow="0">
            <root>
                <mxCell id="sYQatL_ZUaPR5SQjwAD3-0"/>
                <mxCell id="sYQatL_ZUaPR5SQjwAD3-1" parent="sYQatL_ZUaPR5SQjwAD3-0"/>
                <mxCell id="UU5rGATjZX8cabMyj6oe-0" value="" style="verticalLabelPosition=bottom;verticalAlign=top;html=1;shadow=0;dashed=0;strokeWidth=1;shape=mxgraph.android.tab2;strokeColor=#c0c0c0;direction=north;" parent="sYQatL_ZUaPR5SQjwAD3-1" vertex="1">
                    <mxGeometry x="20" y="10" width="510" height="560" as="geometry"/>
                </mxCell>
                <mxCell id="NUkAJhR4YvqEEVHOfAAl-0" value="" style="verticalLabelPosition=bottom;verticalAlign=top;html=1;shadow=0;dashed=0;strokeWidth=1;strokeColor=none;shape=rect;fillColor=#33b5e5;" parent="sYQatL_ZUaPR5SQjwAD3-1" vertex="1">
                    <mxGeometry x="61" y="77" width="430" height="140" as="geometry"/>
                </mxCell>
                <mxCell id="NUkAJhR4YvqEEVHOfAAl-3" value="" style="shape=rect;fillColor=#F6F6F6;strokeColor=none;" parent="sYQatL_ZUaPR5SQjwAD3-1" vertex="1">
                    <mxGeometry x="168.5" y="160" width="174" height="30" as="geometry"/>
                </mxCell>
                <mxCell id="NUkAJhR4YvqEEVHOfAAl-4" value="" style="html=1;strokeWidth=1;shadow=0;dashed=0;shape=mxgraph.ios7ui.marginRect;rx=3;ry=3;rectMargin=5;fillColor=#E4E4E4;strokeColor=none;" parent="NUkAJhR4YvqEEVHOfAAl-3" vertex="1">
                    <mxGeometry width="174" height="30" as="geometry"/>
                </mxCell>
                <mxCell id="NUkAJhR4YvqEEVHOfAAl-5" value="Search" style="shape=mxgraph.ios7.icons.looking_glass;strokeColor=#878789;fillColor=none;fontColor=#878789;labelPosition=right;verticalLabelPosition=middle;align=left;verticalAlign=middle;fontSize=6;fontStyle=0;spacingTop=2;sketch=0;" parent="NUkAJhR4YvqEEVHOfAAl-3" vertex="1">
                    <mxGeometry x="0.5" y="0.5" width="6" height="6" relative="1" as="geometry">
                        <mxPoint x="-17" y="-3" as="offset"/>
                    </mxGeometry>
                </mxCell>
                <mxCell id="NUkAJhR4YvqEEVHOfAAl-6" value="&lt;font style=&quot;font-size: 24px&quot;&gt;镜像商场&lt;/font&gt;" style="text;html=1;strokeColor=none;fillColor=none;align=center;verticalAlign=middle;whiteSpace=wrap;rounded=0;" parent="sYQatL_ZUaPR5SQjwAD3-1" vertex="1">
                    <mxGeometry x="219.5" y="100" width="115" height="40" as="geometry"/>
                </mxCell>
                <mxCell id="NUkAJhR4YvqEEVHOfAAl-7" value="🔍" style="html=1;strokeWidth=1;shadow=0;dashed=0;shape=mxgraph.ios7ui.icon;fontSize=8;fontColor=#ffffff;buttonText=;whiteSpace=wrap;align=center;" parent="sYQatL_ZUaPR5SQjwAD3-1" vertex="1">
                    <mxGeometry x="350" y="160" width="35" height="30" as="geometry"/>
                </mxCell>
                <mxCell id="NUkAJhR4YvqEEVHOfAAl-9" value="" style="verticalLabelPosition=bottom;verticalAlign=top;html=1;shadow=0;dashed=0;strokeWidth=1;strokeColor=none;shape=rect;fillColor=#FFFFFF;fontSize=24;" parent="sYQatL_ZUaPR5SQjwAD3-1" vertex="1">
                    <mxGeometry x="61" y="217" width="430" height="290" as="geometry"/>
                </mxCell>
                <mxCell id="NUkAJhR4YvqEEVHOfAAl-10" value="&lt;font color=&quot;#000000&quot;&gt;精选镜像&lt;/font&gt;" style="text;html=1;strokeColor=none;fillColor=none;align=center;verticalAlign=middle;whiteSpace=wrap;rounded=0;fontSize=24;" parent="sYQatL_ZUaPR5SQjwAD3-1" vertex="1">
                    <mxGeometry x="80" y="228" width="120" height="30" as="geometry"/>
                </mxCell>
                <mxCell id="NUkAJhR4YvqEEVHOfAAl-22" value="node环境的镜像" style="html=1;shadow=0;dashed=0;shape=mxgraph.bootstrap.rrect;rSize=5;strokeColor=#33A64C;html=1;whiteSpace=wrap;fillColor=#ffffff;fontColor=#33A64C;verticalAlign=bottom;align=left;spacing=20;spacingBottom=0;fontSize=14;" parent="sYQatL_ZUaPR5SQjwAD3-1" vertex="1">
                    <mxGeometry x="90" y="266" width="160" height="100" as="geometry"/>
                </mxCell>
                <mxCell id="NUkAJhR4YvqEEVHOfAAl-23" value="&lt;font style=&quot;font-size: 14px&quot;&gt;NODE&lt;/font&gt;" style="html=1;shadow=0;dashed=0;shape=mxgraph.bootstrap.topButton;rSize=5;perimeter=none;whiteSpace=wrap;fillColor=#F7F7F7;strokeColor=#33A64C;fontColor=#6C767D;resizeWidth=1;fontSize=18;align=left;spacing=20;" parent="NUkAJhR4YvqEEVHOfAAl-22" vertex="1">
                    <mxGeometry width="160.00000000000003" height="50" relative="1" as="geometry"/>
                </mxCell>
                <mxCell id="NUkAJhR4YvqEEVHOfAAl-34" value="node环境的镜像" style="html=1;shadow=0;dashed=0;shape=mxgraph.bootstrap.rrect;rSize=5;strokeColor=#33A64C;html=1;whiteSpace=wrap;fillColor=#ffffff;fontColor=#33A64C;verticalAlign=bottom;align=left;spacing=20;spacingBottom=0;fontSize=14;" parent="sYQatL_ZUaPR5SQjwAD3-1" vertex="1">
                    <mxGeometry x="90" y="386" width="160" height="100" as="geometry"/>
                </mxCell>
                <mxCell id="NUkAJhR4YvqEEVHOfAAl-35" value="&lt;font style=&quot;font-size: 14px&quot;&gt;NODE&lt;/font&gt;" style="html=1;shadow=0;dashed=0;shape=mxgraph.bootstrap.topButton;rSize=5;perimeter=none;whiteSpace=wrap;fillColor=#F7F7F7;strokeColor=#33A64C;fontColor=#6C767D;resizeWidth=1;fontSize=18;align=left;spacing=20;" parent="NUkAJhR4YvqEEVHOfAAl-34" vertex="1">
                    <mxGeometry width="160.00000000000003" height="50" relative="1" as="geometry"/>
                </mxCell>
                <mxCell id="NUkAJhR4YvqEEVHOfAAl-36" value="node环境的镜像" style="html=1;shadow=0;dashed=0;shape=mxgraph.bootstrap.rrect;rSize=5;strokeColor=#33A64C;html=1;whiteSpace=wrap;fillColor=#ffffff;fontColor=#33A64C;verticalAlign=bottom;align=left;spacing=20;spacingBottom=0;fontSize=14;" parent="sYQatL_ZUaPR5SQjwAD3-1" vertex="1">
                    <mxGeometry x="287.5" y="268" width="160" height="100" as="geometry"/>
                </mxCell>
                <mxCell id="NUkAJhR4YvqEEVHOfAAl-37" value="&lt;font style=&quot;font-size: 14px&quot;&gt;NODE&lt;/font&gt;" style="html=1;shadow=0;dashed=0;shape=mxgraph.bootstrap.topButton;rSize=5;perimeter=none;whiteSpace=wrap;fillColor=#F7F7F7;strokeColor=#33A64C;fontColor=#6C767D;resizeWidth=1;fontSize=18;align=left;spacing=20;" parent="NUkAJhR4YvqEEVHOfAAl-36" vertex="1">
                    <mxGeometry width="160.00000000000003" height="50" relative="1" as="geometry"/>
                </mxCell>
                <mxCell id="NUkAJhR4YvqEEVHOfAAl-38" value="node环境的镜像" style="html=1;shadow=0;dashed=0;shape=mxgraph.bootstrap.rrect;rSize=5;strokeColor=#33A64C;html=1;whiteSpace=wrap;fillColor=#ffffff;fontColor=#33A64C;verticalAlign=bottom;align=left;spacing=20;spacingBottom=0;fontSize=14;" parent="sYQatL_ZUaPR5SQjwAD3-1" vertex="1">
                    <mxGeometry x="287.5" y="386" width="160" height="100" as="geometry"/>
                </mxCell>
                <mxCell id="NUkAJhR4YvqEEVHOfAAl-39" value="&lt;font style=&quot;font-size: 14px&quot;&gt;NODE&lt;/font&gt;" style="html=1;shadow=0;dashed=0;shape=mxgraph.bootstrap.topButton;rSize=5;perimeter=none;whiteSpace=wrap;fillColor=#F7F7F7;strokeColor=#33A64C;fontColor=#6C767D;resizeWidth=1;fontSize=18;align=left;spacing=20;" parent="NUkAJhR4YvqEEVHOfAAl-38" vertex="1">
                    <mxGeometry width="160.00000000000003" height="50" relative="1" as="geometry"/>
                </mxCell>
                <mxCell id="NUkAJhR4YvqEEVHOfAAl-40" value="" style="verticalLabelPosition=bottom;verticalAlign=top;html=1;shadow=0;dashed=0;strokeWidth=1;shape=mxgraph.android.tab2;strokeColor=#c0c0c0;direction=north;" parent="sYQatL_ZUaPR5SQjwAD3-1" vertex="1">
                    <mxGeometry x="22" y="710" width="510" height="560" as="geometry"/>
                </mxCell>
                <mxCell id="NUkAJhR4YvqEEVHOfAAl-41" value="" style="verticalLabelPosition=bottom;verticalAlign=top;html=1;shadow=0;dashed=0;strokeWidth=1;strokeColor=none;shape=rect;fillColor=#33b5e5;" parent="sYQatL_ZUaPR5SQjwAD3-1" vertex="1">
                    <mxGeometry x="63" y="777" width="430" height="140" as="geometry"/>
                </mxCell>
                <mxCell id="NUkAJhR4YvqEEVHOfAAl-45" value="&lt;font style=&quot;font-size: 24px&quot;&gt;镜像商场&lt;/font&gt;" style="text;html=1;strokeColor=none;fillColor=none;align=center;verticalAlign=middle;whiteSpace=wrap;rounded=0;" parent="sYQatL_ZUaPR5SQjwAD3-1" vertex="1">
                    <mxGeometry x="221.5" y="800" width="115" height="40" as="geometry"/>
                </mxCell>
                <mxCell id="NUkAJhR4YvqEEVHOfAAl-46" value="🔍" style="html=1;strokeWidth=1;shadow=0;dashed=0;shape=mxgraph.ios7ui.icon;fontSize=8;fontColor=#ffffff;buttonText=;whiteSpace=wrap;align=center;" parent="sYQatL_ZUaPR5SQjwAD3-1" vertex="1">
                    <mxGeometry x="352" y="860" width="35" height="30" as="geometry"/>
                </mxCell>
                <mxCell id="NUkAJhR4YvqEEVHOfAAl-47" value="" style="verticalLabelPosition=bottom;verticalAlign=top;html=1;shadow=0;dashed=0;strokeWidth=1;strokeColor=none;shape=rect;fillColor=#FFFFFF;fontSize=24;" parent="sYQatL_ZUaPR5SQjwAD3-1" vertex="1">
                    <mxGeometry x="63" y="917" width="430" height="290" as="geometry"/>
                </mxCell>
                <mxCell id="NUkAJhR4YvqEEVHOfAAl-48" value="&lt;font color=&quot;#000000&quot;&gt;精选镜像&lt;/font&gt;" style="text;html=1;strokeColor=none;fillColor=none;align=center;verticalAlign=middle;whiteSpace=wrap;rounded=0;fontSize=24;" parent="sYQatL_ZUaPR5SQjwAD3-1" vertex="1">
                    <mxGeometry x="82" y="930" width="120" height="30" as="geometry"/>
                </mxCell>
                <mxCell id="NUkAJhR4YvqEEVHOfAAl-51" value="node环境的镜像" style="html=1;shadow=0;dashed=0;shape=mxgraph.bootstrap.rrect;rSize=5;strokeColor=#33A64C;html=1;whiteSpace=wrap;fillColor=#ffffff;fontColor=#33A64C;verticalAlign=bottom;align=left;spacing=20;spacingBottom=0;fontSize=14;" parent="sYQatL_ZUaPR5SQjwAD3-1" vertex="1">
                    <mxGeometry x="92" y="1080" width="160" height="100" as="geometry"/>
                </mxCell>
                <mxCell id="NUkAJhR4YvqEEVHOfAAl-52" value="&lt;font style=&quot;font-size: 14px&quot;&gt;NODE&lt;/font&gt;" style="html=1;shadow=0;dashed=0;shape=mxgraph.bootstrap.topButton;rSize=5;perimeter=none;whiteSpace=wrap;fillColor=#F7F7F7;strokeColor=#33A64C;fontColor=#6C767D;resizeWidth=1;fontSize=18;align=left;spacing=20;" parent="NUkAJhR4YvqEEVHOfAAl-51" vertex="1">
                    <mxGeometry width="160.00000000000003" height="50" relative="1" as="geometry"/>
                </mxCell>
                <mxCell id="NUkAJhR4YvqEEVHOfAAl-53" value="node环境的镜像" style="html=1;shadow=0;dashed=0;shape=mxgraph.bootstrap.rrect;rSize=5;strokeColor=#33A64C;html=1;whiteSpace=wrap;fillColor=#ffffff;fontColor=#33A64C;verticalAlign=bottom;align=left;spacing=20;spacingBottom=0;fontSize=14;" parent="sYQatL_ZUaPR5SQjwAD3-1" vertex="1">
                    <mxGeometry x="289.5" y="965" width="160" height="100" as="geometry"/>
                </mxCell>
                <mxCell id="NUkAJhR4YvqEEVHOfAAl-54" value="&lt;font style=&quot;font-size: 14px&quot;&gt;NODE&lt;/font&gt;" style="html=1;shadow=0;dashed=0;shape=mxgraph.bootstrap.topButton;rSize=5;perimeter=none;whiteSpace=wrap;fillColor=#F7F7F7;strokeColor=#33A64C;fontColor=#6C767D;resizeWidth=1;fontSize=18;align=left;spacing=20;" parent="NUkAJhR4YvqEEVHOfAAl-53" vertex="1">
                    <mxGeometry width="160.00000000000003" height="50" relative="1" as="geometry"/>
                </mxCell>
                <mxCell id="NUkAJhR4YvqEEVHOfAAl-55" value="node环境的镜像" style="html=1;shadow=0;dashed=0;shape=mxgraph.bootstrap.rrect;rSize=5;strokeColor=#33A64C;html=1;whiteSpace=wrap;fillColor=#ffffff;fontColor=#33A64C;verticalAlign=bottom;align=left;spacing=20;spacingBottom=0;fontSize=14;" parent="sYQatL_ZUaPR5SQjwAD3-1" vertex="1">
                    <mxGeometry x="289.5" y="1080" width="160" height="100" as="geometry"/>
                </mxCell>
                <mxCell id="NUkAJhR4YvqEEVHOfAAl-56" value="&lt;font style=&quot;font-size: 14px&quot;&gt;NODE&lt;/font&gt;" style="html=1;shadow=0;dashed=0;shape=mxgraph.bootstrap.topButton;rSize=5;perimeter=none;whiteSpace=wrap;fillColor=#F7F7F7;strokeColor=#33A64C;fontColor=#6C767D;resizeWidth=1;fontSize=18;align=left;spacing=20;" parent="NUkAJhR4YvqEEVHOfAAl-55" vertex="1">
                    <mxGeometry width="160.00000000000003" height="50" relative="1" as="geometry"/>
                </mxCell>
                <mxCell id="NUkAJhR4YvqEEVHOfAAl-57" value="进入镜像商店初始页面" style="html=1;shadow=0;dashed=0;shape=mxgraph.bootstrap.rrect;rSize=5;strokeColor=none;strokeWidth=1;fillColor=#6C767D;fontColor=#FFFFFF;whiteSpace=wrap;align=center;verticalAlign=middle;spacingLeft=10;fontStyle=1;fontSize=18;" parent="sYQatL_ZUaPR5SQjwAD3-1" vertex="1">
                    <mxGeometry x="600" y="20" width="300" height="40" as="geometry"/>
                </mxCell>
                <mxCell id="NUkAJhR4YvqEEVHOfAAl-58" value="&lt;h1&gt;&lt;font color=&quot;#ffffff&quot;&gt;搜索🔍&lt;/font&gt;&lt;/h1&gt;&lt;p&gt;&lt;font color=&quot;#ffffff&quot;&gt;在搜索框可以输入想要查询的镜像文件&lt;br&gt;和docker.hub 页面进行搜索的结果一致。&lt;/font&gt;&lt;/p&gt;" style="text;html=1;strokeColor=none;fillColor=none;spacing=5;spacingTop=-20;whiteSpace=wrap;overflow=hidden;rounded=0;fontSize=14;fontColor=#000000;" parent="sYQatL_ZUaPR5SQjwAD3-1" vertex="1">
                    <mxGeometry x="610" y="77" width="300" height="120" as="geometry"/>
                </mxCell>
                <mxCell id="eteXYlg-2ede5nNgnoD8-0" value="&lt;h1&gt;&lt;font color=&quot;#ffffff&quot;&gt;镜像镜像&lt;/font&gt;&lt;/h1&gt;&lt;p&gt;&lt;font color=&quot;#ffffff&quot;&gt;放置了一些官方使用人数较多，下载次数多的镜像，供用户直接进行一个下载，免去了搜索的操作。&lt;/font&gt;&lt;/p&gt;" style="text;html=1;strokeColor=none;fillColor=none;spacing=5;spacingTop=-20;whiteSpace=wrap;overflow=hidden;rounded=0;fontSize=14;fontColor=#000000;" parent="sYQatL_ZUaPR5SQjwAD3-1" vertex="1">
                    <mxGeometry x="600" y="400" width="250" height="170" as="geometry"/>
                </mxCell>
                <mxCell id="eteXYlg-2ede5nNgnoD8-3" value="alpine" style="html=1;shadow=0;dashed=0;shape=mxgraph.bootstrap.rrect;rSize=5;strokeColor=#FDFDFE;strokeWidth=1;fillColor=#FEFEFE;fontColor=#818182;whiteSpace=wrap;align=left;verticalAlign=middle;spacingLeft=10;fontSize=14;" parent="sYQatL_ZUaPR5SQjwAD3-1" vertex="1">
                    <mxGeometry x="180.5" y="857.5" width="162" height="32.5" as="geometry"/>
                </mxCell>
                <mxCell id="eteXYlg-2ede5nNgnoD8-5" value="&lt;p style=&quot;line-height: 1.8&quot;&gt;&lt;font style=&quot;font-size: 18px&quot;&gt;输入搜索镜像名&lt;br&gt;支持模糊查询&lt;/font&gt;&lt;/p&gt;" style="text;html=1;strokeColor=none;fillColor=none;align=center;verticalAlign=middle;whiteSpace=wrap;rounded=0;fontSize=14;fontColor=#FFFFFF;" parent="sYQatL_ZUaPR5SQjwAD3-1" vertex="1">
                    <mxGeometry x="604" y="190" width="160" height="60" as="geometry"/>
                </mxCell>
                <mxCell id="zHrpFBNm8l_q3KDdwp_H-3" value="node环境的镜像" style="html=1;shadow=0;dashed=0;shape=mxgraph.bootstrap.rrect;rSize=5;strokeColor=#33A64C;html=1;whiteSpace=wrap;fillColor=#ffffff;fontColor=#33A64C;verticalAlign=bottom;align=left;spacing=20;spacingBottom=0;fontSize=14;" parent="sYQatL_ZUaPR5SQjwAD3-1" vertex="1">
                    <mxGeometry x="92" y="965" width="160" height="100" as="geometry"/>
                </mxCell>
                <mxCell id="zHrpFBNm8l_q3KDdwp_H-4" value="&lt;font style=&quot;font-size: 14px&quot;&gt;NODE&lt;/font&gt;" style="html=1;shadow=0;dashed=0;shape=mxgraph.bootstrap.topButton;rSize=5;perimeter=none;whiteSpace=wrap;fillColor=#F7F7F7;strokeColor=#33A64C;fontColor=#6C767D;resizeWidth=1;fontSize=18;align=left;spacing=20;" parent="zHrpFBNm8l_q3KDdwp_H-3" vertex="1">
                    <mxGeometry width="160.00000000000003" height="50" relative="1" as="geometry"/>
                </mxCell>
                <mxCell id="zHrpFBNm8l_q3KDdwp_H-6" value="&lt;p style=&quot;line-height: 1.8&quot;&gt;&lt;span style=&quot;font-size: 18px&quot;&gt;点击搜索进行查询&lt;/span&gt;&lt;/p&gt;" style="text;html=1;strokeColor=none;fillColor=none;align=center;verticalAlign=middle;whiteSpace=wrap;rounded=0;fontSize=14;fontColor=#FFFFFF;" parent="sYQatL_ZUaPR5SQjwAD3-1" vertex="1">
                    <mxGeometry x="610" y="262.5" width="160" height="55" as="geometry"/>
                </mxCell>
                <mxCell id="zHrpFBNm8l_q3KDdwp_H-7" value="" style="endArrow=classic;html=1;fontSize=18;fontColor=#FFFFFF;exitX=0.557;exitY=1.067;exitDx=0;exitDy=0;exitPerimeter=0;entryX=0;entryY=0.5;entryDx=0;entryDy=0;" parent="sYQatL_ZUaPR5SQjwAD3-1" source="NUkAJhR4YvqEEVHOfAAl-7" target="zHrpFBNm8l_q3KDdwp_H-6" edge="1">
                    <mxGeometry width="50" height="50" relative="1" as="geometry">
                        <mxPoint x="420" y="190" as="sourcePoint"/>
                        <mxPoint x="470" y="140" as="targetPoint"/>
                    </mxGeometry>
                </mxCell>
                <mxCell id="zHrpFBNm8l_q3KDdwp_H-8" value="" style="endArrow=classic;html=1;fontSize=18;fontColor=#FFFFFF;exitX=1;exitY=0.5;exitDx=0;exitDy=0;entryX=0;entryY=0;entryDx=0;entryDy=0;" parent="sYQatL_ZUaPR5SQjwAD3-1" source="NUkAJhR4YvqEEVHOfAAl-3" target="eteXYlg-2ede5nNgnoD8-5" edge="1">
                    <mxGeometry width="50" height="50" relative="1" as="geometry">
                        <mxPoint x="400" y="180" as="sourcePoint"/>
                        <mxPoint x="450" y="130" as="targetPoint"/>
                    </mxGeometry>
                </mxCell>
                <mxCell id="zHrpFBNm8l_q3KDdwp_H-9" value="" style="html=1;shadow=0;dashed=0;shape=mxgraph.bootstrap.rrect;rSize=5;strokeColor=none;strokeWidth=1;fillColor=#343A40;fontColor=#ffffff;whiteSpace=wrap;align=center;verticalAlign=middle;spacingLeft=0;fontStyle=0;fontSize=16;spacing=5;" parent="sYQatL_ZUaPR5SQjwAD3-1" vertex="1">
                    <mxGeometry x="200" y="774" width="298" height="436" as="geometry"/>
                </mxCell>
                <mxCell id="zHrpFBNm8l_q3KDdwp_H-12" value="" style="html=1;verticalLabelPosition=bottom;labelBackgroundColor=#ffffff;verticalAlign=top;shadow=0;dashed=0;strokeWidth=2;shape=mxgraph.ios7.misc.loading_circle;fontSize=18;fontColor=#FFFFFF;" parent="sYQatL_ZUaPR5SQjwAD3-1" vertex="1">
                    <mxGeometry x="245" y="600" width="68" height="70" as="geometry"/>
                </mxCell>
                <mxCell id="zHrpFBNm8l_q3KDdwp_H-14" value="搜索结果" style="html=1;strokeWidth=1;shadow=0;dashed=0;shape=mxgraph.ios7ui.icon;fontSize=8;fontColor=#ffffff;buttonText=;whiteSpace=wrap;align=center;" parent="sYQatL_ZUaPR5SQjwAD3-1" vertex="1">
                    <mxGeometry x="210" y="780" width="280" height="36" as="geometry"/>
                </mxCell>
                <mxCell id="4YdsoaOoLgvMXguQuDrc-0" value="&lt;h1&gt;&lt;font color=&quot;#ffffff&quot; style=&quot;font-size: 18px&quot;&gt;在线翻译&lt;/font&gt;&lt;/h1&gt;&lt;p&gt;&lt;font color=&quot;#ffffff&quot;&gt;在查询镜像文件的时候，有个详情描述，用户可以点击列表中的翻译图标进行中文翻译&lt;/font&gt;&lt;/p&gt;" style="text;html=1;strokeColor=none;fillColor=none;spacing=5;spacingTop=-20;whiteSpace=wrap;overflow=hidden;rounded=0;fontSize=14;fontColor=#000000;" parent="sYQatL_ZUaPR5SQjwAD3-1" vertex="1">
                    <mxGeometry x="600" y="540" width="250" height="120" as="geometry"/>
                </mxCell>
            </root>
        </mxGraphModel>
    </diagram>
    <diagram id="BUH-UkCZ4VvFHRdcdEK2" name="镜像列表">
        <mxGraphModel dx="914" dy="747" grid="1" gridSize="10" guides="1" tooltips="1" connect="1" arrows="1" fold="1" page="1" pageScale="1" pageWidth="980" pageHeight="1390" math="0" shadow="0">
            <root>
                <mxCell id="k_AD4wh6NUf_5AYfPmYU-0"/>
                <mxCell id="k_AD4wh6NUf_5AYfPmYU-1" parent="k_AD4wh6NUf_5AYfPmYU-0"/>
            </root>
        </mxGraphModel>
    </diagram>
</mxfile>